<?xml version="1.0" encoding="utf-8"?>
<!-- Generator: Adobe Illustrator 16.0.0, SVG Export Plug-In . SVG Version: 6.00 Build 0)  -->
<!DOCTYPE svg PUBLIC "-//W3C//DTD SVG 1.0//EN" "http://www.w3.org/TR/2001/REC-SVG-20010904/DTD/svg10.dtd">
<svg version="1.0" id="Layer_1" xmlns="http://www.w3.org/2000/svg" xmlns:xlink="http://www.w3.org/1999/xlink" x="0px" y="0px"
	 width="100px" height="100px" viewBox="0 0 100 100" enable-background="new 0 0 100 100" xml:space="preserve">
<path fill="#C5BEAA" d="M76.667,10H23.333C15.999,10,10,15.999,10,23.333v40c0,7.334,5.999,13.334,13.333,13.334h13.334L50,90
	l13.333-13.333h13.334c7.334,0,13.333-6,13.333-13.334v-40C90,15.999,84.001,10,76.667,10z M83.333,63.333
	c0,3.677-2.991,6.667-6.666,6.667H60.573L50,80.572L39.427,70H23.333c-3.679,0-6.666-2.99-6.666-6.667v-40
	c0-3.679,2.987-6.666,6.666-6.666h53.334c3.675,0,6.666,2.987,6.666,6.666V63.333z"/>
<path fill="#E6625E" d="M66.667,33.333c0-5.521-4.479-10-10-10s-10,4.479-10,10v2.819c-7.305-0.735-14.408-3.895-20-9.485
	c0,8.968,3.595,17.096,9.407,23.047C35.188,49.896,34.271,50,33.333,50c-2.153,0-4.867-0.56-6.666-1.465
	c2.291,8.516,10.763,14.798,20,14.798c11.041,0,20-8.958,20-20V40h6.666L66.667,33.333z M56.667,36.667
	c-1.84,0-3.334-1.491-3.334-3.334c0-1.842,1.494-3.333,3.334-3.333C58.506,30,60,31.491,60,33.333
	C60,35.176,58.506,36.667,56.667,36.667z"/>
</svg>
